<?xml version="1.0" standalone="no"?>
<!DOCTYPE svg PUBLIC "-//W3C//DTD SVG 20010904//EN"
 "http://www.w3.org/TR/2001/REC-SVG-20010904/DTD/svg10.dtd">
<svg version="1.0" xmlns="http://www.w3.org/2000/svg"
 width="1024.000000pt" height="1024.000000pt" viewBox="0 0 1024.000000 1024.000000"
 preserveAspectRatio="xMidYMid meet">

<g transform="translate(0.000000,1024.000000) scale(0.100000,-0.100000)"
fill="#000000" stroke="none">
<path d="M1465 6291 c-231 -63 -386 -204 -465 -420 -104 -285 -35 -615 196
-937 121 -169 258 -312 524 -549 74 -66 196 -177 271 -246 142 -132 168 -146
228 -129 19 5 88 61 174 142 78 73 201 185 272 249 151 134 338 322 424 427
228 274 334 551 318 826 -12 200 -66 325 -197 457 -137 137 -284 199 -475 199
-182 0 -331 -58 -536 -208 -15 -12 -26 -7 -91 41 -150 112 -275 157 -453 163
-96 3 -134 0 -190 -15z m351 -237 c91 -36 150 -73 246 -155 113 -95 138 -96
238 -10 176 152 319 211 486 198 98 -7 185 -48 263 -122 148 -141 188 -350
112 -585 -59 -183 -184 -364 -405 -586 -126 -126 -368 -349 -521 -479 l-55
-47 -176 157 c-451 404 -616 582 -728 786 -156 286 -136 586 53 762 54 51 91
72 171 99 82 27 223 20 316 -18z"/>
<path d="M2054 5652 c-27 -17 -34 -56 -34 -174 l0 -124 -129 0 c-175 1 -171 6
-171 -169 0 -172 -7 -165 168 -165 l130 0 4 -133 c2 -95 7 -139 17 -150 11
-14 35 -17 151 -17 116 0 140 3 151 17 10 11 15 55 17 150 l4 133 133 0 c170
0 165 -5 165 165 0 170 5 165 -166 165 l-134 0 0 126 c0 120 -7 159 -34 176
-6 4 -67 8 -136 8 -69 0 -130 -4 -136 -8z"/>
<path d="M4175 6219 c-218 -32 -365 -232 -365 -499 0 -221 96 -394 261 -470
129 -59 318 -52 434 15 84 50 160 156 180 253 l7 32 -100 0 c-98 0 -100 0
-106 -25 -9 -34 -62 -93 -105 -114 -130 -66 -288 -3 -342 137 -17 44 -22 79
-22 157 -1 158 34 248 121 309 37 26 55 31 117 34 66 4 79 1 125 -24 59 -32
97 -76 106 -122 l7 -32 103 0 104 0 -6 28 c-42 176 -173 296 -350 322 -78 11
-86 11 -169 -1z"/>
<path d="M8050 6055 l0 -95 -55 0 -55 0 0 -75 0 -75 55 0 55 0 0 -214 c0 -134
4 -226 12 -247 16 -49 45 -87 80 -105 41 -21 136 -34 201 -27 l52 5 -3 74 -4
74 -52 0 c-92 0 -91 -3 -94 234 l-3 206 70 0 71 0 0 75 0 75 -70 0 -70 0 0 95
0 95 -95 0 -95 0 0 -95z"/>
<path d="M5067 5969 c-194 -29 -322 -226 -289 -442 31 -198 164 -318 352 -318
146 0 258 70 322 198 28 57 33 79 36 158 5 110 -13 185 -63 262 -73 110 -209
164 -358 142z m115 -159 c80 -23 127 -128 115 -258 -9 -88 -39 -141 -99 -170
-122 -61 -228 33 -229 202 -1 94 17 151 58 192 42 42 88 52 155 34z"/>
<path d="M5893 5954 c-23 -9 -60 -33 -82 -55 l-41 -39 0 50 0 50 -90 0 -90 0
0 -370 0 -370 94 0 95 0 3 238 c3 216 5 240 24 276 28 54 75 78 142 73 44 -3
59 -10 85 -36 l32 -31 3 -260 3 -260 97 0 97 0 -2 256 c0 141 -4 272 -8 292
-16 85 -87 167 -164 190 -52 16 -147 14 -198 -4z"/>
<path d="M6583 5949 c-127 -49 -211 -172 -221 -324 -11 -177 60 -315 197 -382
50 -25 67 -28 161 -28 92 0 112 3 161 26 66 31 124 87 150 143 30 66 30 66
-73 66 l-93 0 -17 -30 c-34 -60 -132 -77 -208 -37 -43 23 -72 62 -85 120 l-7
27 254 0 c140 0 257 2 259 4 2 3 1 49 -2 103 -10 155 -66 244 -192 304 -54 25
-73 29 -147 28 -60 0 -100 -6 -137 -20z m202 -143 c39 -17 64 -50 71 -97 l6
-34 -151 3 c-109 2 -151 6 -151 15 0 7 10 30 23 51 39 68 124 94 202 62z"/>
<path d="M7382 5951 c-66 -23 -117 -63 -159 -125 -44 -65 -63 -134 -63 -232 0
-236 139 -384 360 -384 166 0 288 87 328 233 l10 37 -99 0 c-96 0 -99 -1 -105
-24 -3 -13 -19 -36 -35 -52 -24 -23 -40 -29 -92 -32 -52 -3 -67 0 -96 20 -58
39 -76 88 -76 203 0 83 4 106 21 135 31 54 77 80 141 80 68 0 108 -22 130 -72
l17 -38 99 0 99 0 -7 33 c-11 53 -59 130 -103 164 -94 72 -251 95 -370 54z"/>
<path d="M8689 5954 c-57 -17 -136 -86 -160 -139 -34 -73 -31 -75 75 -75 83 0
95 2 100 18 19 58 113 88 179 57 38 -18 63 -61 52 -94 -7 -24 -9 -25 -170 -56
-159 -30 -210 -55 -249 -118 -50 -81 -36 -199 32 -271 83 -88 260 -89 356 -2
l36 34 0 -44 0 -44 93 0 93 0 -4 283 c-3 275 -4 283 -28 334 -27 57 -72 96
-135 118 -53 19 -208 18 -270 -1z m251 -403 c0 -45 -24 -119 -47 -143 -75 -78
-223 -53 -223 38 0 47 33 69 126 84 43 6 87 16 98 20 28 12 46 12 46 1z"/>
<path d="M4172 4999 c-166 -28 -304 -172 -343 -357 -17 -85 -6 -273 20 -347
44 -124 137 -222 251 -267 116 -45 305 -33 405 27 89 52 167 159 182 248 l6
37 -95 0 -94 0 -22 -45 c-39 -81 -139 -133 -234 -122 -91 11 -159 63 -200 152
-20 44 -23 65 -23 180 0 111 3 137 21 175 60 129 170 183 298 146 69 -20 129
-76 147 -135 l12 -41 103 0 102 0 -9 41 c-50 221 -271 350 -527 308z"/>
<path d="M5013 4742 c-60 -21 -112 -59 -146 -105 -25 -32 -51 -97 -43 -104 2
-3 46 -5 97 -5 83 0 94 2 100 20 14 39 58 62 116 62 47 0 59 -4 84 -29 35 -36
38 -75 7 -95 -13 -7 -79 -23 -148 -35 -143 -25 -198 -48 -240 -99 -83 -101
-45 -274 75 -332 40 -19 58 -22 128 -18 91 5 150 29 186 74 l21 27 0 -47 0
-46 93 0 93 0 -4 278 c-2 154 -8 292 -14 311 -15 47 -75 111 -128 134 -65 29
-208 34 -277 9z m230 -439 c-12 -106 -57 -153 -146 -153 -86 0 -129 40 -113
105 8 32 31 43 124 60 42 7 88 18 102 24 38 15 38 15 33 -36z"/>
<path d="M5860 4744 c-19 -8 -50 -29 -67 -46 l-33 -32 0 42 0 42 -95 0 -95 0
0 -370 0 -370 98 0 97 0 0 233 c0 258 2 266 68 308 27 17 45 20 110 16 l78 -4
-2 91 c-2 72 -6 92 -18 98 -28 12 -105 8 -141 -8z"/>
<path d="M6253 4742 c-96 -34 -163 -103 -204 -211 -17 -43 -22 -77 -22 -151 0
-107 21 -176 74 -249 86 -119 288 -166 436 -102 54 24 136 101 152 143 27 73
32 68 -71 68 -86 0 -94 -2 -103 -22 -6 -12 -23 -31 -38 -42 -40 -30 -144 -30
-183 0 -42 31 -65 67 -71 110 l-5 39 252 -3 252 -3 -4 98 c-5 120 -29 180 -96
246 -66 65 -128 90 -232 94 -64 3 -98 -1 -137 -15z m228 -168 c17 -18 32 -45
36 -67 l6 -37 -147 0 c-163 0 -165 1 -128 68 29 55 67 74 140 70 54 -3 67 -8
93 -34z"/>
</g>
</svg>
